<?xml version="1.0" encoding="utf-8"?>
<!-- Generator: Adobe Illustrator 22.1.0, SVG Export Plug-In . SVG Version: 6.00 Build 0)  -->
<svg version="1.1" id="Layer_1" xmlns="http://www.w3.org/2000/svg" xmlns:xlink="http://www.w3.org/1999/xlink" x="0px" y="0px"
	 viewBox="0 0 235 59" style="enable-background:new 0 0 235 59;" xml:space="preserve">
<style type="text/css">
	.st0{fill:url(#SVGID_1_);}
	.st1{fill:url(#SVGID_2_);}
	.st2{fill:url(#SVGID_3_);}
	.st3{fill:url(#SVGID_4_);}
	.st4{fill:url(#SVGID_5_);}
	.st5{fill:url(#SVGID_6_);}
	.st6{fill:url(#SVGID_7_);}
	.st7{fill:#151515;}
	.st8{fill:#FFFFFF;}
	.st9{fill:none;stroke:#000000;stroke-width:0.5;stroke-miterlimit:10;}
	.st10{fill:url(#SVGID_8_);}
	.st11{fill:url(#SVGID_9_);}
</style>
<g>
	<path d="M39.9,15.7H27.7l-1.4,8h12.2l-1.1,5.9H23.9c-1.1,0-2.1-0.4-2.8-1.1c-0.7-0.7-1.1-1.7-1.1-2.7c0-0.1,0-0.3,0-0.4
		s0-0.3,0-0.4L22,14.3c0.2-1.3,0.9-2.4,1.9-3.3c1.1-0.9,2.3-1.4,3.5-1.4H41L39.9,15.7z"/>
	<path d="M60.7,13.6c0,0.1,0,0.3,0,0.4s0,0.3,0,0.4l-0.5,3c-0.1,0.7-0.7,1.5-1.7,2.3c0.6,0.8,0.9,1.4,0.9,2V22l-0.5,3
		c-0.2,1.3-0.9,2.4-1.9,3.3c-1.1,0.9-2.2,1.4-3.5,1.4H39.2l3.5-19.9h14.2c1.1,0,2.1,0.4,2.8,1.1C60.4,11.5,60.7,12.4,60.7,13.6z
		 M46.4,22l-0.3,1.7h7l0.3-1.7H46.4z M47.5,15.7l-0.3,1.7h7l0.3-1.7H47.5z"/>
	<path d="M80.6,13.6c0,0.1,0,0.3,0,0.4s0,0.3-0.1,0.4l-1.8,10.6c-0.2,1.3-0.9,2.4-1.9,3.3c-1.1,0.9-2.2,1.4-3.5,1.4H59.7l3.5-19.9
		h13.6c1.1,0,2.1,0.4,2.8,1.1C80.2,11.5,80.6,12.4,80.6,13.6z M68.1,15.7l-1.4,8H73l1.4-8H68.1z"/>
</g>
<g>
	<linearGradient id="SVGID_1_" gradientUnits="userSpaceOnUse" x1="100.0378" y1="9.7125" x2="100.0378" y2="29.5675">
		<stop  offset="0" style="stop-color:#AA0000"/>
		<stop  offset="0.1883" style="stop-color:#930000"/>
		<stop  offset="0.3707" style="stop-color:#840000"/>
		<stop  offset="0.521" style="stop-color:#7F0000"/>
		<stop  offset="0.6694" style="stop-color:#850000"/>
		<stop  offset="0.8622" style="stop-color:#950000"/>
		<stop  offset="1" style="stop-color:#A50000"/>
	</linearGradient>
	<path class="st0" d="M109,29.6h-5.9l1.5-8.3l-6.3,8.3l-3.3-8.3l-1.5,8.3h-5.9L91,9.7h6l3.3,8.3l6.3-8.3h6L109,29.6z"/>
	<linearGradient id="SVGID_2_" gradientUnits="userSpaceOnUse" x1="121.551" y1="9.7125" x2="121.551" y2="29.5675">
		<stop  offset="0" style="stop-color:#AA0000"/>
		<stop  offset="0.1883" style="stop-color:#930000"/>
		<stop  offset="0.3707" style="stop-color:#840000"/>
		<stop  offset="0.521" style="stop-color:#7F0000"/>
		<stop  offset="0.6694" style="stop-color:#850000"/>
		<stop  offset="0.8622" style="stop-color:#950000"/>
		<stop  offset="1" style="stop-color:#A50000"/>
	</linearGradient>
	<path class="st1" d="M131.6,13.6c0,0.1,0,0.3,0,0.4c0,0.1,0,0.3-0.1,0.4l-1.8,10.6c-0.2,1.3-0.9,2.4-1.9,3.3
		c-1.1,0.9-2.2,1.4-3.5,1.4h-8.9c-1.1,0-2.1-0.4-2.8-1.1c-0.7-0.7-1.1-1.7-1.1-2.7c0-0.1,0-0.3,0-0.4c0-0.1,0-0.3,0-0.4l1.8-10.6
		c0.2-1.3,0.9-2.4,1.9-3.3c1.1-0.9,2.3-1.4,3.5-1.4h8.9c1.1,0,2.1,0.4,2.8,1.1C131.3,11.5,131.6,12.4,131.6,13.6z M119.1,15.7
		l-1.4,8h6.3l1.4-8H119.1z"/>
	<linearGradient id="SVGID_3_" gradientUnits="userSpaceOnUse" x1="142.6496" y1="9.7125" x2="142.6496" y2="29.5675">
		<stop  offset="0" style="stop-color:#AA0000"/>
		<stop  offset="0.1883" style="stop-color:#930000"/>
		<stop  offset="0.3707" style="stop-color:#840000"/>
		<stop  offset="0.521" style="stop-color:#7F0000"/>
		<stop  offset="0.6694" style="stop-color:#850000"/>
		<stop  offset="0.8622" style="stop-color:#950000"/>
		<stop  offset="1" style="stop-color:#A50000"/>
	</linearGradient>
	<path class="st2" d="M143.6,29.6h-8.9l-1.5-19.9h5.9l1,13.9l5.9-13.9h6L143.6,29.6z"/>
	<linearGradient id="SVGID_4_" gradientUnits="userSpaceOnUse" x1="159.4427" y1="9.7125" x2="159.4427" y2="29.5675">
		<stop  offset="0" style="stop-color:#AA0000"/>
		<stop  offset="0.1883" style="stop-color:#930000"/>
		<stop  offset="0.3707" style="stop-color:#840000"/>
		<stop  offset="0.521" style="stop-color:#7F0000"/>
		<stop  offset="0.6694" style="stop-color:#850000"/>
		<stop  offset="0.8622" style="stop-color:#950000"/>
		<stop  offset="1" style="stop-color:#A50000"/>
	</linearGradient>
	<path class="st3" d="M168.4,15.7h-10.6l-0.3,1.7h10.6l-0.8,4.6h-10.6l-0.3,1.7H167l-1.1,5.9h-16.5l3.5-19.9h16.6L168.4,15.7z"/>
	<linearGradient id="SVGID_5_" gradientUnits="userSpaceOnUse" x1="178.105" y1="9.7125" x2="178.105" y2="29.5675">
		<stop  offset="0" style="stop-color:#AA0000"/>
		<stop  offset="0.1883" style="stop-color:#930000"/>
		<stop  offset="0.3707" style="stop-color:#840000"/>
		<stop  offset="0.521" style="stop-color:#7F0000"/>
		<stop  offset="0.6694" style="stop-color:#850000"/>
		<stop  offset="0.8622" style="stop-color:#950000"/>
		<stop  offset="1" style="stop-color:#A50000"/>
	</linearGradient>
	<path class="st4" d="M188.6,13.6c0,0.1,0,0.3,0,0.4c0,0.1,0,0.3-0.1,0.4l-0.5,3c-0.1,0.7-0.7,1.4-1.7,2.3c0.6,0.7,0.9,1.4,0.9,2V22
		l-1.4,7.6h-6l1.4-7.6h-6.3l-1.4,7.6h-5.9l3.5-19.9h13.6c1.1,0,2.1,0.4,2.8,1.1C188.2,11.5,188.6,12.4,188.6,13.6z M176,15.7
		l-0.3,1.7h6.3l0.3-1.7H176z"/>
	<linearGradient id="SVGID_6_" gradientUnits="userSpaceOnUse" x1="198.3381" y1="9.7125" x2="198.3381" y2="29.5675">
		<stop  offset="0" style="stop-color:#AA0000"/>
		<stop  offset="0.1883" style="stop-color:#930000"/>
		<stop  offset="0.3707" style="stop-color:#840000"/>
		<stop  offset="0.521" style="stop-color:#7F0000"/>
		<stop  offset="0.6694" style="stop-color:#850000"/>
		<stop  offset="0.8622" style="stop-color:#950000"/>
		<stop  offset="1" style="stop-color:#A50000"/>
	</linearGradient>
	<path class="st5" d="M208.1,15.7h-12.2l-0.3,1.7h7.6c1.2,0,2.1,0.4,2.8,1.1c0.7,0.7,1.1,1.6,1.1,2.7c0,0.1,0,0.3,0,0.4
		c0,0.1,0,0.3-0.1,0.4l-0.5,3c-0.2,1.3-0.9,2.4-1.9,3.3c-1.1,0.9-2.2,1.4-3.5,1.4h-13.5l1-5.9h12.2l0.3-1.7h-7.6
		c-1.1,0-2.1-0.4-2.8-1.1c-0.7-0.7-1.1-1.6-1.1-2.7c0-0.1,0-0.3,0-0.4c0-0.1,0-0.3,0-0.4l0.5-3c0.2-1.3,0.9-2.4,1.9-3.3
		c1.1-0.9,2.3-1.4,3.5-1.4h13.6L208.1,15.7z"/>
</g>
<linearGradient id="SVGID_7_" gradientUnits="userSpaceOnUse" x1="114.7365" y1="33.4113" x2="114.7365" y2="44.3995">
	<stop  offset="0" style="stop-color:#AA0000"/>
	<stop  offset="0.1883" style="stop-color:#930000"/>
	<stop  offset="0.3707" style="stop-color:#840000"/>
	<stop  offset="0.521" style="stop-color:#7F0000"/>
	<stop  offset="0.6694" style="stop-color:#850000"/>
	<stop  offset="0.8622" style="stop-color:#950000"/>
	<stop  offset="1" style="stop-color:#A50000"/>
</linearGradient>
<rect x="19.7" y="33.4" class="st6" width="190" height="11"/>
<g>
	<path class="st7" d="M24.8,52.4h-1.1l-0.4-1.1h-2l-0.4,1.1h-1.1l1.9-5h1.1L24.8,52.4z M23,50.4l-0.7-1.9l-0.7,1.9H23z"/>
	<path class="st7" d="M27.7,52.4v-0.5c-0.1,0.2-0.3,0.3-0.5,0.5s-0.4,0.2-0.7,0.2c-0.2,0-0.5-0.1-0.7-0.2c-0.2-0.1-0.3-0.3-0.4-0.5
		s-0.1-0.5-0.1-0.8v-2.3h1v1.7c0,0.5,0,0.8,0.1,0.9c0,0.1,0.1,0.2,0.2,0.3c0.1,0.1,0.2,0.1,0.4,0.1c0.2,0,0.3,0,0.4-0.1
		c0.1-0.1,0.2-0.2,0.3-0.3c0-0.1,0.1-0.5,0.1-1v-1.5h1v3.6H27.7z"/>
	<path class="st7" d="M29.1,51.4l1-0.1c0,0.2,0.1,0.3,0.2,0.4s0.3,0.1,0.5,0.1c0.2,0,0.4,0,0.6-0.1c0.1-0.1,0.1-0.1,0.1-0.3
		c0-0.1,0-0.1-0.1-0.2c0,0-0.2-0.1-0.3-0.1c-0.8-0.2-1.3-0.3-1.5-0.5c-0.3-0.2-0.4-0.5-0.4-0.8c0-0.3,0.1-0.6,0.4-0.8
		c0.2-0.2,0.6-0.3,1.2-0.3c0.5,0,0.9,0.1,1.1,0.2c0.2,0.2,0.4,0.4,0.5,0.7l-0.9,0.2c0-0.1-0.1-0.2-0.2-0.3c-0.1-0.1-0.3-0.1-0.5-0.1
		c-0.3,0-0.4,0-0.5,0.1c-0.1,0-0.1,0.1-0.1,0.2c0,0.1,0,0.1,0.1,0.2c0.1,0.1,0.4,0.2,0.9,0.3c0.5,0.1,0.9,0.3,1.1,0.4
		c0.2,0.2,0.3,0.4,0.3,0.7c0,0.3-0.1,0.6-0.4,0.9c-0.3,0.2-0.7,0.4-1.2,0.4c-0.5,0-0.9-0.1-1.2-0.3C29.4,52,29.2,51.7,29.1,51.4z"/>
	<path class="st7" d="M34.9,48.8v0.8h-0.7V51c0,0.3,0,0.5,0,0.5c0,0,0,0.1,0.1,0.1c0,0,0.1,0,0.2,0c0.1,0,0.2,0,0.4-0.1l0.1,0.7
		c-0.2,0.1-0.5,0.1-0.8,0.1c-0.2,0-0.3,0-0.5-0.1c-0.1-0.1-0.2-0.1-0.3-0.2c-0.1-0.1-0.1-0.2-0.1-0.4c0-0.1,0-0.3,0-0.7v-1.6h-0.4
		v-0.8h0.4v-0.7l1-0.6v1.3H34.9z"/>
	<path class="st7" d="M36.4,52.4h-1v-3.6h0.9v0.5c0.2-0.2,0.3-0.4,0.4-0.5s0.3-0.1,0.4-0.1c0.2,0,0.4,0.1,0.6,0.2l-0.3,0.8
		c-0.2-0.1-0.3-0.2-0.5-0.2c-0.1,0-0.2,0-0.3,0.1c-0.1,0.1-0.2,0.2-0.2,0.4s-0.1,0.6-0.1,1.2V52.4z"/>
	<path class="st7" d="M38.8,49.9L38,49.7c0.1-0.4,0.3-0.6,0.5-0.8c0.2-0.2,0.6-0.3,1.1-0.3c0.4,0,0.7,0.1,1,0.2
		c0.2,0.1,0.4,0.2,0.4,0.4c0.1,0.2,0.1,0.4,0.1,0.9l0,1.1c0,0.3,0,0.6,0,0.7c0,0.2,0.1,0.3,0.2,0.5h-0.9c0-0.1-0.1-0.2-0.1-0.3
		c0-0.1,0-0.1,0-0.1c-0.2,0.2-0.3,0.3-0.5,0.4c-0.2,0.1-0.4,0.1-0.6,0.1c-0.4,0-0.7-0.1-0.9-0.3s-0.3-0.5-0.3-0.8
		c0-0.2,0-0.4,0.1-0.5s0.2-0.3,0.4-0.4c0.2-0.1,0.4-0.2,0.8-0.2c0.4-0.1,0.8-0.2,0.9-0.2v-0.1c0-0.2,0-0.3-0.1-0.4
		c-0.1-0.1-0.3-0.1-0.5-0.1c-0.2,0-0.3,0-0.4,0.1C39,49.6,38.9,49.7,38.8,49.9z M40.1,50.7c-0.1,0-0.3,0.1-0.6,0.1
		c-0.3,0.1-0.4,0.1-0.5,0.2c-0.1,0.1-0.2,0.2-0.2,0.3c0,0.1,0,0.2,0.1,0.3s0.2,0.1,0.4,0.1c0.2,0,0.3-0.1,0.5-0.2
		c0.1-0.1,0.2-0.2,0.2-0.3c0-0.1,0-0.2,0-0.5V50.7z"/>
	<path class="st7" d="M41.9,52.4v-5h1v5H41.9z"/>
	<path class="st7" d="M43.8,48.3v-0.9h1v0.9H43.8z M43.8,52.4v-3.6h1v3.6H43.8z"/>
	<path class="st7" d="M46.4,49.9l-0.9-0.2c0.1-0.4,0.3-0.6,0.5-0.8c0.2-0.2,0.6-0.3,1.1-0.3c0.4,0,0.7,0.1,1,0.2
		c0.2,0.1,0.4,0.2,0.4,0.4c0.1,0.2,0.1,0.4,0.1,0.9l0,1.1c0,0.3,0,0.6,0,0.7c0,0.2,0.1,0.3,0.2,0.5h-0.9c0-0.1-0.1-0.2-0.1-0.3
		c0-0.1,0-0.1,0-0.1c-0.2,0.2-0.3,0.3-0.5,0.4c-0.2,0.1-0.4,0.1-0.6,0.1c-0.4,0-0.7-0.1-0.9-0.3s-0.3-0.5-0.3-0.8
		c0-0.2,0-0.4,0.1-0.5s0.2-0.3,0.4-0.4c0.2-0.1,0.4-0.2,0.8-0.2c0.4-0.1,0.8-0.2,0.9-0.2v-0.1c0-0.2,0-0.3-0.1-0.4
		c-0.1-0.1-0.3-0.1-0.5-0.1c-0.2,0-0.3,0-0.4,0.1C46.5,49.6,46.4,49.7,46.4,49.9z M47.6,50.7c-0.1,0-0.3,0.1-0.6,0.1
		c-0.3,0.1-0.4,0.1-0.5,0.2c-0.1,0.1-0.2,0.2-0.2,0.3c0,0.1,0,0.2,0.1,0.3s0.2,0.1,0.4,0.1c0.2,0,0.3-0.1,0.5-0.2
		c0.1-0.1,0.2-0.2,0.2-0.3c0-0.1,0-0.2,0-0.5V50.7z"/>
	<path class="st7" d="M55.1,53.9v-6.6h0.8v6.6H55.1z"/>
	<path class="st7" d="M62.5,52.4v-5h1l2,3.3v-3.3h0.9v5h-1l-2-3.3v3.3H62.5z"/>
	<path class="st7" d="M69.5,51.3l1,0.2c-0.1,0.3-0.3,0.6-0.6,0.8c-0.3,0.2-0.6,0.3-1,0.3c-0.6,0-1.1-0.2-1.4-0.6
		c-0.2-0.3-0.4-0.7-0.4-1.2c0-0.6,0.2-1.1,0.5-1.4c0.3-0.3,0.7-0.5,1.2-0.5c0.5,0,1,0.2,1.3,0.5c0.3,0.4,0.5,0.9,0.4,1.6h-2.4
		c0,0.3,0.1,0.5,0.2,0.7c0.1,0.2,0.3,0.2,0.6,0.2c0.1,0,0.3,0,0.4-0.1C69.4,51.6,69.5,51.4,69.5,51.3z M69.6,50.3
		c0-0.3-0.1-0.5-0.2-0.6c-0.1-0.1-0.3-0.2-0.5-0.2c-0.2,0-0.4,0.1-0.5,0.2s-0.2,0.4-0.2,0.6H69.6z"/>
	<path class="st7" d="M71.9,52.4l-1.1-3.6h0.9l0.7,2.4l0.6-2.4h0.9l0.6,2.4l0.7-2.4h0.9L75,52.4h-0.9l-0.6-2.3l-0.6,2.3H71.9z"/>
	<path class="st7" d="M78,52.4v-0.9l2.6-3.2h-2.3v-0.8h3.7v0.8l-2.7,3.4h2.8v0.8H78z"/>
	<path class="st7" d="M84.7,51.3l1,0.2c-0.1,0.3-0.3,0.6-0.6,0.8c-0.3,0.2-0.6,0.3-1,0.3c-0.6,0-1.1-0.2-1.4-0.6
		c-0.2-0.3-0.4-0.7-0.4-1.2c0-0.6,0.2-1.1,0.5-1.4c0.3-0.3,0.7-0.5,1.2-0.5c0.5,0,1,0.2,1.3,0.5c0.3,0.4,0.5,0.9,0.4,1.6h-2.4
		c0,0.3,0.1,0.5,0.2,0.7c0.1,0.2,0.3,0.2,0.6,0.2c0.1,0,0.3,0,0.4-0.1C84.6,51.6,84.6,51.4,84.7,51.3z M84.7,50.3
		c0-0.3-0.1-0.5-0.2-0.6c-0.1-0.1-0.3-0.2-0.5-0.2c-0.2,0-0.4,0.1-0.5,0.2s-0.2,0.4-0.2,0.6H84.7z"/>
	<path class="st7" d="M87.1,49.9l-0.9-0.2c0.1-0.4,0.3-0.6,0.5-0.8c0.2-0.2,0.6-0.3,1.1-0.3c0.4,0,0.7,0.1,1,0.2
		c0.2,0.1,0.4,0.2,0.4,0.4c0.1,0.2,0.1,0.4,0.1,0.9l0,1.1c0,0.3,0,0.6,0,0.7c0,0.2,0.1,0.3,0.2,0.5h-0.9c0-0.1-0.1-0.2-0.1-0.3
		c0-0.1,0-0.1,0-0.1c-0.2,0.2-0.3,0.3-0.5,0.4c-0.2,0.1-0.4,0.1-0.6,0.1c-0.4,0-0.7-0.1-0.9-0.3s-0.3-0.5-0.3-0.8
		c0-0.2,0-0.4,0.1-0.5s0.2-0.3,0.4-0.4c0.2-0.1,0.4-0.2,0.8-0.2c0.4-0.1,0.8-0.2,0.9-0.2v-0.1c0-0.2,0-0.3-0.1-0.4
		c-0.1-0.1-0.3-0.1-0.5-0.1c-0.2,0-0.3,0-0.4,0.1C87.2,49.6,87.2,49.7,87.1,49.9z M88.4,50.7c-0.1,0-0.3,0.1-0.6,0.1
		c-0.3,0.1-0.4,0.1-0.5,0.2c-0.1,0.1-0.2,0.2-0.2,0.3c0,0.1,0,0.2,0.1,0.3s0.2,0.1,0.4,0.1c0.2,0,0.3-0.1,0.5-0.2
		c0.1-0.1,0.2-0.2,0.2-0.3c0-0.1,0-0.2,0-0.5V50.7z"/>
	<path class="st7" d="M90.2,52.4v-5h1v5H90.2z"/>
	<path class="st7" d="M92.8,49.9l-0.9-0.2c0.1-0.4,0.3-0.6,0.5-0.8c0.2-0.2,0.6-0.3,1.1-0.3c0.4,0,0.7,0.1,1,0.2
		c0.2,0.1,0.4,0.2,0.4,0.4c0.1,0.2,0.1,0.4,0.1,0.9l0,1.1c0,0.3,0,0.6,0,0.7c0,0.2,0.1,0.3,0.2,0.5h-0.9c0-0.1-0.1-0.2-0.1-0.3
		c0-0.1,0-0.1,0-0.1c-0.2,0.2-0.3,0.3-0.5,0.4c-0.2,0.1-0.4,0.1-0.6,0.1c-0.4,0-0.7-0.1-0.9-0.3s-0.3-0.5-0.3-0.8
		c0-0.2,0-0.4,0.1-0.5s0.2-0.3,0.4-0.4c0.2-0.1,0.4-0.2,0.8-0.2c0.4-0.1,0.8-0.2,0.9-0.2v-0.1c0-0.2,0-0.3-0.1-0.4
		c-0.1-0.1-0.3-0.1-0.5-0.1c-0.2,0-0.3,0-0.4,0.1C92.9,49.6,92.8,49.7,92.8,49.9z M94.1,50.7c-0.1,0-0.3,0.1-0.6,0.1
		c-0.3,0.1-0.4,0.1-0.5,0.2c-0.1,0.1-0.2,0.2-0.2,0.3c0,0.1,0,0.2,0.1,0.3s0.2,0.1,0.4,0.1c0.2,0,0.3-0.1,0.5-0.2
		c0.1-0.1,0.2-0.2,0.2-0.3c0-0.1,0-0.2,0-0.5V50.7z"/>
	<path class="st7" d="M99.1,52.4h-1v-1.8c0-0.4,0-0.6-0.1-0.8c0-0.1-0.1-0.2-0.2-0.3c-0.1-0.1-0.2-0.1-0.3-0.1c-0.2,0-0.3,0-0.4,0.1
		c-0.1,0.1-0.2,0.2-0.3,0.4c0,0.1-0.1,0.4-0.1,0.8v1.6h-1v-3.6h0.9v0.5c0.3-0.4,0.7-0.6,1.2-0.6c0.2,0,0.4,0,0.6,0.1
		c0.2,0.1,0.3,0.2,0.4,0.3s0.2,0.3,0.2,0.4c0,0.1,0.1,0.4,0.1,0.6V52.4z"/>
	<path class="st7" d="M103.4,52.4h-0.9v-0.5c-0.1,0.2-0.3,0.4-0.5,0.5c-0.2,0.1-0.4,0.2-0.6,0.2c-0.4,0-0.8-0.2-1.1-0.5
		c-0.3-0.3-0.4-0.8-0.4-1.4c0-0.6,0.1-1.1,0.4-1.4c0.3-0.3,0.7-0.5,1.1-0.5c0.4,0,0.8,0.2,1.1,0.5v-1.8h1V52.4z M100.8,50.5
		c0,0.4,0.1,0.7,0.2,0.8c0.2,0.2,0.4,0.4,0.6,0.4c0.2,0,0.4-0.1,0.6-0.3s0.2-0.5,0.2-0.8c0-0.4-0.1-0.7-0.2-0.9s-0.3-0.3-0.6-0.3
		c-0.2,0-0.4,0.1-0.6,0.3S100.8,50.2,100.8,50.5z"/>
	<path class="st7" d="M109.9,53.9v-6.6h0.8v6.6H109.9z"/>
	<path class="st7" d="M117.2,47.4h1v2.7c0,0.4,0,0.7,0,0.8c0,0.2,0.1,0.4,0.3,0.5s0.4,0.2,0.7,0.2c0.3,0,0.5-0.1,0.6-0.2
		s0.2-0.3,0.3-0.4c0-0.2,0-0.5,0-0.8v-2.8h1V50c0,0.6,0,1-0.1,1.3c-0.1,0.2-0.2,0.5-0.3,0.6c-0.1,0.2-0.3,0.3-0.6,0.4
		c-0.2,0.1-0.6,0.2-1,0.2c-0.5,0-0.8-0.1-1.1-0.2s-0.4-0.3-0.6-0.4c-0.1-0.2-0.2-0.4-0.3-0.6c-0.1-0.3-0.1-0.7-0.1-1.3V47.4z"/>
	<path class="st7" d="M125.5,52.4h-1v-1.8c0-0.4,0-0.6-0.1-0.8c0-0.1-0.1-0.2-0.2-0.3c-0.1-0.1-0.2-0.1-0.3-0.1
		c-0.2,0-0.3,0-0.4,0.1c-0.1,0.1-0.2,0.2-0.3,0.4c0,0.1-0.1,0.4-0.1,0.8v1.6h-1v-3.6h0.9v0.5c0.3-0.4,0.7-0.6,1.2-0.6
		c0.2,0,0.4,0,0.6,0.1c0.2,0.1,0.3,0.2,0.4,0.3s0.2,0.3,0.2,0.4c0,0.1,0.1,0.4,0.1,0.6V52.4z"/>
	<path class="st7" d="M126.4,48.3v-0.9h1v0.9H126.4z M126.4,52.4v-3.6h1v3.6H126.4z"/>
	<path class="st7" d="M129.9,48.8v0.8h-0.7V51c0,0.3,0,0.5,0,0.5c0,0,0,0.1,0.1,0.1c0,0,0.1,0,0.2,0c0.1,0,0.2,0,0.4-0.1l0.1,0.7
		c-0.2,0.1-0.5,0.1-0.8,0.1c-0.2,0-0.3,0-0.5-0.1c-0.1-0.1-0.2-0.1-0.3-0.2c-0.1-0.1-0.1-0.2-0.1-0.4c0-0.1,0-0.3,0-0.7v-1.6h-0.4
		v-0.8h0.4v-0.7l1-0.6v1.3H129.9z"/>
	<path class="st7" d="M132.6,51.3l1,0.2c-0.1,0.3-0.3,0.6-0.6,0.8c-0.3,0.2-0.6,0.3-1,0.3c-0.6,0-1.1-0.2-1.4-0.6
		c-0.2-0.3-0.4-0.7-0.4-1.2c0-0.6,0.2-1.1,0.5-1.4s0.7-0.5,1.2-0.5c0.5,0,1,0.2,1.3,0.5c0.3,0.4,0.5,0.9,0.4,1.6h-2.4
		c0,0.3,0.1,0.5,0.2,0.7s0.3,0.2,0.6,0.2c0.1,0,0.3,0,0.4-0.1S132.5,51.4,132.6,51.3z M132.6,50.3c0-0.3-0.1-0.5-0.2-0.6
		c-0.1-0.1-0.3-0.2-0.5-0.2c-0.2,0-0.4,0.1-0.5,0.2s-0.2,0.4-0.2,0.6H132.6z"/>
	<path class="st7" d="M137.6,52.4h-0.9v-0.5c-0.1,0.2-0.3,0.4-0.5,0.5c-0.2,0.1-0.4,0.2-0.6,0.2c-0.4,0-0.8-0.2-1.1-0.5
		c-0.3-0.3-0.4-0.8-0.4-1.4c0-0.6,0.1-1.1,0.4-1.4c0.3-0.3,0.7-0.5,1.1-0.5c0.4,0,0.8,0.2,1,0.5v-1.8h1V52.4z M135,50.5
		c0,0.4,0.1,0.7,0.2,0.8c0.2,0.2,0.4,0.4,0.6,0.4c0.2,0,0.4-0.1,0.6-0.3s0.2-0.5,0.2-0.8c0-0.4-0.1-0.7-0.2-0.9s-0.3-0.3-0.6-0.3
		c-0.2,0-0.4,0.1-0.6,0.3S135,50.2,135,50.5z"/>
	<path class="st7" d="M140.3,52.4v-5h1v2.2l2-2.2h1.4l-1.9,1.9l2,3.1h-1.3l-1.4-2.3l-0.8,0.8v1.5H140.3z"/>
	<path class="st7" d="M145.3,48.3v-0.9h1v0.9H145.3z M145.3,52.4v-3.6h1v3.6H145.3z"/>
	<path class="st7" d="M150.4,52.4h-1v-1.8c0-0.4,0-0.6-0.1-0.8c0-0.1-0.1-0.2-0.2-0.3c-0.1-0.1-0.2-0.1-0.3-0.1
		c-0.2,0-0.3,0-0.4,0.1c-0.1,0.1-0.2,0.2-0.3,0.4c0,0.1-0.1,0.4-0.1,0.8v1.6h-1v-3.6h0.9v0.5c0.3-0.4,0.7-0.6,1.2-0.6
		c0.2,0,0.4,0,0.6,0.1s0.3,0.2,0.4,0.3s0.2,0.3,0.2,0.4c0,0.1,0.1,0.4,0.1,0.6V52.4z"/>
	<path class="st7" d="M151.2,52.6l1.1,0.1c0,0.1,0.1,0.2,0.1,0.3c0.1,0.1,0.2,0.1,0.4,0.1c0.2,0,0.4,0,0.6-0.1
		c0.1,0,0.1-0.1,0.2-0.2c0-0.1,0-0.2,0-0.4v-0.5c-0.3,0.4-0.6,0.6-1.1,0.6c-0.5,0-0.9-0.2-1.2-0.6c-0.2-0.3-0.3-0.7-0.3-1.2
		c0-0.6,0.1-1.1,0.4-1.4c0.3-0.3,0.7-0.5,1.1-0.5c0.4,0,0.8,0.2,1.1,0.6v-0.5h0.9V52c0,0.4,0,0.7-0.1,1c-0.1,0.2-0.2,0.4-0.3,0.5
		c-0.1,0.1-0.3,0.2-0.5,0.3c-0.2,0.1-0.5,0.1-0.8,0.1c-0.6,0-1-0.1-1.3-0.3c-0.3-0.2-0.4-0.5-0.4-0.8
		C151.2,52.7,151.2,52.7,151.2,52.6z M152.1,50.5c0,0.4,0.1,0.7,0.2,0.8c0.1,0.2,0.3,0.3,0.5,0.3c0.2,0,0.4-0.1,0.6-0.3
		c0.2-0.2,0.2-0.5,0.2-0.8c0-0.4-0.1-0.7-0.2-0.8c-0.2-0.2-0.3-0.3-0.6-0.3c-0.2,0-0.4,0.1-0.6,0.3
		C152.1,49.9,152.1,50.2,152.1,50.5z"/>
	<path class="st7" d="M158.8,52.4h-0.9v-0.5c-0.1,0.2-0.3,0.4-0.5,0.5c-0.2,0.1-0.4,0.2-0.6,0.2c-0.4,0-0.8-0.2-1.1-0.5
		c-0.3-0.3-0.4-0.8-0.4-1.4c0-0.6,0.1-1.1,0.4-1.4c0.3-0.3,0.7-0.5,1.1-0.5c0.4,0,0.8,0.2,1,0.5v-1.8h1V52.4z M156.2,50.5
		c0,0.4,0.1,0.7,0.2,0.8c0.2,0.2,0.4,0.4,0.6,0.4c0.2,0,0.4-0.1,0.6-0.3s0.2-0.5,0.2-0.8c0-0.4-0.1-0.7-0.2-0.9s-0.3-0.3-0.6-0.3
		c-0.2,0-0.4,0.1-0.6,0.3S156.2,50.2,156.2,50.5z"/>
	<path class="st7" d="M159.4,50.5c0-0.3,0.1-0.6,0.2-0.9c0.2-0.3,0.4-0.5,0.7-0.7c0.3-0.2,0.6-0.2,1-0.2c0.5,0,1,0.2,1.3,0.5
		c0.4,0.4,0.5,0.8,0.5,1.3c0,0.5-0.2,1-0.5,1.4s-0.8,0.5-1.3,0.5c-0.3,0-0.6-0.1-0.9-0.2c-0.3-0.1-0.5-0.4-0.7-0.7
		C159.5,51.3,159.4,51,159.4,50.5z M160.4,50.6c0,0.4,0.1,0.6,0.3,0.8c0.2,0.2,0.4,0.3,0.6,0.3s0.5-0.1,0.6-0.3
		c0.2-0.2,0.3-0.5,0.3-0.8c0-0.4-0.1-0.6-0.3-0.8c-0.2-0.2-0.4-0.3-0.6-0.3s-0.5,0.1-0.6,0.3C160.5,50,160.4,50.2,160.4,50.6z"/>
	<path class="st7" d="M163.8,48.8h0.9v0.5c0.3-0.4,0.7-0.6,1.1-0.6c0.2,0,0.4,0,0.6,0.1s0.3,0.2,0.4,0.4c0.2-0.2,0.3-0.3,0.5-0.4
		c0.2-0.1,0.4-0.1,0.6-0.1c0.3,0,0.5,0.1,0.7,0.2c0.2,0.1,0.3,0.3,0.4,0.5c0.1,0.2,0.1,0.4,0.1,0.8v2.3h-1v-2.1c0-0.4,0-0.6-0.1-0.7
		c-0.1-0.1-0.2-0.2-0.4-0.2c-0.1,0-0.3,0-0.4,0.1c-0.1,0.1-0.2,0.2-0.3,0.4s-0.1,0.4-0.1,0.7v1.7h-1v-2c0-0.4,0-0.6-0.1-0.7
		c0-0.1-0.1-0.2-0.2-0.2c-0.1-0.1-0.2-0.1-0.3-0.1c-0.1,0-0.3,0-0.4,0.1c-0.1,0.1-0.2,0.2-0.3,0.3c-0.1,0.1-0.1,0.4-0.1,0.7v1.8h-1
		V48.8z"/>
	<path class="st7" d="M177.5,53.9v-6.6h0.8v6.6H177.5z"/>
	<path class="st7" d="M188,50.6l1,0.3c-0.1,0.5-0.4,1-0.7,1.2c-0.3,0.3-0.8,0.4-1.3,0.4c-0.7,0-1.2-0.2-1.6-0.7
		c-0.4-0.5-0.6-1.1-0.6-1.9c0-0.8,0.2-1.5,0.6-1.9s1-0.7,1.7-0.7c0.6,0,1.1,0.2,1.5,0.5c0.2,0.2,0.4,0.5,0.5,0.9l-1,0.2
		c-0.1-0.3-0.2-0.5-0.4-0.6c-0.2-0.2-0.4-0.2-0.7-0.2c-0.4,0-0.7,0.1-0.9,0.4s-0.3,0.7-0.3,1.3c0,0.6,0.1,1.1,0.3,1.4
		s0.5,0.4,0.9,0.4c0.3,0,0.5-0.1,0.7-0.3C187.8,51.2,188,50.9,188,50.6z"/>
	<path class="st7" d="M190.5,49.9l-0.9-0.2c0.1-0.4,0.3-0.6,0.5-0.8c0.2-0.2,0.6-0.3,1.1-0.3c0.4,0,0.7,0.1,1,0.2
		c0.2,0.1,0.4,0.2,0.4,0.4c0.1,0.2,0.1,0.4,0.1,0.9l0,1.1c0,0.3,0,0.6,0,0.7c0,0.2,0.1,0.3,0.2,0.5H192c0-0.1-0.1-0.2-0.1-0.3
		c0-0.1,0-0.1,0-0.1c-0.2,0.2-0.3,0.3-0.5,0.4c-0.2,0.1-0.4,0.1-0.6,0.1c-0.4,0-0.7-0.1-0.9-0.3s-0.3-0.5-0.3-0.8
		c0-0.2,0-0.4,0.1-0.5s0.2-0.3,0.4-0.4c0.2-0.1,0.4-0.2,0.8-0.2c0.4-0.1,0.8-0.2,0.9-0.2v-0.1c0-0.2,0-0.3-0.1-0.4
		c-0.1-0.1-0.3-0.1-0.5-0.1c-0.2,0-0.3,0-0.4,0.1S190.6,49.7,190.5,49.9z M191.8,50.7c-0.1,0-0.3,0.1-0.6,0.1
		c-0.3,0.1-0.4,0.1-0.5,0.2c-0.1,0.1-0.2,0.2-0.2,0.3c0,0.1,0,0.2,0.2,0.3c0.1,0.1,0.2,0.1,0.4,0.1c0.2,0,0.3-0.1,0.5-0.2
		c0.1-0.1,0.2-0.2,0.2-0.3c0-0.1,0-0.2,0-0.5V50.7z"/>
	<path class="st7" d="M196.9,52.4h-1v-1.8c0-0.4,0-0.6-0.1-0.8c0-0.1-0.1-0.2-0.2-0.3c-0.1-0.1-0.2-0.1-0.3-0.1
		c-0.2,0-0.3,0-0.4,0.1c-0.1,0.1-0.2,0.2-0.3,0.4c0,0.1-0.1,0.4-0.1,0.8v1.6h-1v-3.6h0.9v0.5c0.3-0.4,0.7-0.6,1.2-0.6
		c0.2,0,0.4,0,0.6,0.1s0.3,0.2,0.4,0.3s0.2,0.3,0.2,0.4c0,0.1,0.1,0.4,0.1,0.6V52.4z"/>
	<path class="st7" d="M198.5,49.9l-0.9-0.2c0.1-0.4,0.3-0.6,0.5-0.8c0.2-0.2,0.6-0.3,1.1-0.3c0.4,0,0.7,0.1,1,0.2
		c0.2,0.1,0.4,0.2,0.4,0.4c0.1,0.2,0.1,0.4,0.1,0.9l0,1.1c0,0.3,0,0.6,0,0.7c0,0.2,0.1,0.3,0.2,0.5H200c0-0.1-0.1-0.2-0.1-0.3
		c0-0.1,0-0.1,0-0.1c-0.2,0.2-0.3,0.3-0.5,0.4c-0.2,0.1-0.4,0.1-0.6,0.1c-0.4,0-0.7-0.1-0.9-0.3s-0.3-0.5-0.3-0.8
		c0-0.2,0-0.4,0.1-0.5s0.2-0.3,0.4-0.4c0.2-0.1,0.4-0.2,0.8-0.2c0.4-0.1,0.8-0.2,0.9-0.2v-0.1c0-0.2,0-0.3-0.1-0.4
		c-0.1-0.1-0.3-0.1-0.5-0.1c-0.2,0-0.3,0-0.4,0.1S198.6,49.7,198.5,49.9z M199.8,50.7c-0.1,0-0.3,0.1-0.6,0.1
		c-0.3,0.1-0.4,0.1-0.5,0.2c-0.1,0.1-0.2,0.2-0.2,0.3c0,0.1,0,0.2,0.2,0.3c0.1,0.1,0.2,0.1,0.4,0.1c0.2,0,0.3-0.1,0.5-0.2
		c0.1-0.1,0.2-0.2,0.2-0.3c0-0.1,0-0.2,0-0.5V50.7z"/>
	<path class="st7" d="M204.9,52.4H204v-0.5c-0.1,0.2-0.3,0.4-0.5,0.5c-0.2,0.1-0.4,0.2-0.6,0.2c-0.4,0-0.8-0.2-1.1-0.5
		c-0.3-0.3-0.4-0.8-0.4-1.4c0-0.6,0.1-1.1,0.4-1.4c0.3-0.3,0.7-0.5,1.1-0.5c0.4,0,0.8,0.2,1,0.5v-1.8h1V52.4z M202.3,50.5
		c0,0.4,0.1,0.7,0.2,0.8c0.2,0.2,0.4,0.4,0.6,0.4c0.2,0,0.4-0.1,0.6-0.3s0.2-0.5,0.2-0.8c0-0.4-0.1-0.7-0.2-0.9s-0.3-0.3-0.6-0.3
		c-0.2,0-0.4,0.1-0.6,0.3S202.3,50.2,202.3,50.5z"/>
	<path class="st7" d="M206.5,49.9l-0.9-0.2c0.1-0.4,0.3-0.6,0.5-0.8c0.2-0.2,0.6-0.3,1.1-0.3c0.4,0,0.7,0.1,1,0.2
		c0.2,0.1,0.4,0.2,0.4,0.4c0.1,0.2,0.1,0.4,0.1,0.9l0,1.1c0,0.3,0,0.6,0,0.7c0,0.2,0.1,0.3,0.2,0.5H208c0-0.1-0.1-0.2-0.1-0.3
		c0-0.1,0-0.1,0-0.1c-0.2,0.2-0.3,0.3-0.5,0.4c-0.2,0.1-0.4,0.1-0.6,0.1c-0.4,0-0.7-0.1-0.9-0.3s-0.3-0.5-0.3-0.8
		c0-0.2,0-0.4,0.1-0.5s0.2-0.3,0.4-0.4c0.2-0.1,0.4-0.2,0.8-0.2c0.4-0.1,0.8-0.2,0.9-0.2v-0.1c0-0.2,0-0.3-0.1-0.4
		c-0.1-0.1-0.3-0.1-0.5-0.1c-0.2,0-0.3,0-0.4,0.1S206.5,49.7,206.5,49.9z M207.8,50.7c-0.1,0-0.3,0.1-0.6,0.1
		c-0.3,0.1-0.4,0.1-0.5,0.2c-0.1,0.1-0.2,0.2-0.2,0.3c0,0.1,0,0.2,0.2,0.3c0.1,0.1,0.2,0.1,0.4,0.1c0.2,0,0.3-0.1,0.5-0.2
		c0.1-0.1,0.2-0.2,0.2-0.3c0-0.1,0-0.2,0-0.5V50.7z"/>
</g>
<g>
	<path class="st8" d="M60.6,38.1h-0.4c-0.1-0.3-0.2-0.6-0.5-0.9s-0.4-0.5-0.6-0.5c-0.1,0-0.2,0-0.4,0c-0.1,0-0.3,0-0.4,0h-0.2v5.1
		c0,0.1,0,0.2,0.1,0.3s0.1,0.2,0.2,0.2c0.1,0,0.2,0.1,0.3,0.1c0.1,0,0.3,0,0.4,0.1v0.4h-3.6v-0.4c0.1,0,0.2,0,0.4,0s0.3,0,0.3-0.1
		c0.1,0,0.2-0.1,0.2-0.2s0.1-0.2,0.1-0.3v-5.1h-0.2c-0.1,0-0.2,0-0.4,0c-0.1,0-0.3,0-0.4,0c-0.2,0-0.4,0.2-0.6,0.5s-0.4,0.6-0.5,0.9
		h-0.4v-1.9h6.3V38.1z"/>
	<path class="st8" d="M69.4,42.8h-3.5v-0.4c0.1,0,0.2,0,0.3,0c0.1,0,0.2,0,0.3-0.1c0.1,0,0.2-0.1,0.2-0.2c0-0.1,0.1-0.2,0.1-0.3
		v-2.2h-2.8v2.2c0,0.1,0,0.2,0.1,0.3c0,0.1,0.1,0.1,0.2,0.2c0.1,0,0.2,0.1,0.3,0.1s0.3,0,0.3,0.1v0.4h-3.5v-0.4c0.1,0,0.2,0,0.3,0
		s0.3,0,0.3-0.1c0.1,0,0.2-0.1,0.2-0.2c0-0.1,0.1-0.2,0.1-0.3v-4.6c0-0.1,0-0.2-0.1-0.3s-0.1-0.1-0.2-0.2c-0.1,0-0.2-0.1-0.3-0.1
		c-0.1,0-0.2-0.1-0.3-0.1v-0.4H65v0.4c-0.1,0-0.2,0-0.3,0c-0.1,0-0.2,0-0.3,0.1c-0.1,0-0.2,0.1-0.2,0.2c0,0.1-0.1,0.2-0.1,0.3v1.9
		h2.8v-1.9c0-0.1,0-0.2-0.1-0.3c0-0.1-0.1-0.1-0.2-0.2c-0.1,0-0.2-0.1-0.3-0.1s-0.2-0.1-0.3-0.1v-0.4h3.5v0.4c-0.1,0-0.2,0-0.3,0
		c-0.1,0-0.2,0-0.3,0.1c-0.1,0-0.2,0.1-0.2,0.2c0,0.1-0.1,0.2-0.1,0.3v4.6c0,0.1,0,0.2,0.1,0.3s0.1,0.1,0.2,0.2
		c0.1,0,0.2,0.1,0.3,0.1s0.3,0,0.3,0V42.8z"/>
	<path class="st8" d="M76.3,37.9h-0.3c-0.1-0.2-0.2-0.5-0.5-0.7c-0.2-0.3-0.4-0.4-0.6-0.4c-0.1,0-0.2,0-0.4,0c-0.2,0-0.3,0-0.4,0
		h-0.9v2.5h0.7c0.2,0,0.3,0,0.5-0.1c0.1,0,0.3-0.1,0.4-0.2c0.1-0.1,0.1-0.2,0.2-0.4s0.1-0.3,0.1-0.5h0.3v2.7h-0.3
		c0-0.1-0.1-0.3-0.1-0.5c-0.1-0.2-0.1-0.3-0.2-0.4c-0.1-0.1-0.2-0.2-0.4-0.2s-0.3-0.1-0.5-0.1h-0.7v1.9c0,0.2,0,0.3,0,0.5
		c0,0.1,0.1,0.2,0.2,0.3c0.1,0.1,0.2,0.1,0.3,0.1c0.1,0,0.3,0,0.5,0c0.1,0,0.2,0,0.4,0s0.3,0,0.4,0c0.1,0,0.2,0,0.4-0.1
		c0.1,0,0.2-0.1,0.2-0.1c0.1-0.1,0.3-0.4,0.5-0.7c0.2-0.3,0.3-0.5,0.4-0.7h0.3l-0.1,2h-6.1v-0.4c0.1,0,0.2,0,0.3,0
		c0.1,0,0.2,0,0.3-0.1c0.1,0,0.2-0.1,0.2-0.2c0-0.1,0.1-0.2,0.1-0.3v-4.6c0-0.1,0-0.2-0.1-0.3s-0.1-0.1-0.2-0.2
		c-0.1,0-0.2-0.1-0.3-0.1c-0.1,0-0.3-0.1-0.3-0.1v-0.4h5.8V37.9z"/>
	<path class="st8" d="M87.6,42.8h-3.5v-0.4c0.2,0,0.4,0,0.6-0.1c0.2,0,0.3-0.1,0.3-0.2c0,0,0-0.1,0-0.1c0,0,0-0.1,0-0.1l-0.6-1.3
		h-2.2c-0.1,0.1-0.1,0.3-0.2,0.4c-0.1,0.2-0.1,0.3-0.2,0.4c-0.1,0.2-0.1,0.3-0.1,0.4s0,0.1,0,0.2c0,0.1,0.1,0.2,0.2,0.2
		c0.1,0.1,0.4,0.1,0.7,0.1v0.4H80v-0.4c0.1,0,0.2,0,0.3,0c0.1,0,0.2-0.1,0.3-0.1c0.1-0.1,0.2-0.2,0.3-0.3s0.2-0.2,0.2-0.4
		c0.4-0.9,0.7-1.7,1.1-2.6c0.4-0.9,0.7-1.8,1.2-2.8h0.9c0.6,1.5,1.1,2.6,1.4,3.5c0.3,0.9,0.6,1.6,0.9,2.1c0,0.1,0.1,0.2,0.2,0.2
		c0.1,0.1,0.1,0.1,0.3,0.2c0.1,0,0.2,0.1,0.3,0.1c0.1,0,0.2,0,0.3,0V42.8z M84.2,40.2l-0.9-2.3l-0.9,2.3H84.2z"/>
	<path class="st8" d="M95.6,42.8h-2.5c-0.4-0.7-0.8-1.2-1.1-1.6c-0.3-0.4-0.6-0.8-1.1-1.4h-0.3v2c0,0.1,0,0.2,0.1,0.3
		s0.1,0.1,0.2,0.2c0.1,0,0.1,0,0.3,0.1c0.1,0,0.2,0,0.3,0.1v0.4h-3.5v-0.4c0.1,0,0.2,0,0.4,0s0.2,0,0.3-0.1c0.1,0,0.2-0.1,0.2-0.2
		c0-0.1,0.1-0.2,0.1-0.3v-4.6c0-0.1,0-0.2-0.1-0.3s-0.1-0.1-0.2-0.2c-0.1,0-0.2-0.1-0.3-0.1c-0.1,0-0.2,0-0.3-0.1v-0.4h3.6
		c0.8,0,1.4,0.1,1.9,0.4c0.4,0.3,0.6,0.6,0.6,1.2c0,0.5-0.1,0.8-0.4,1.1c-0.3,0.3-0.7,0.5-1.2,0.6c0.2,0.3,0.4,0.6,0.7,0.9
		c0.3,0.4,0.6,0.7,0.9,1.1c0.1,0.1,0.2,0.3,0.4,0.4c0.2,0.2,0.3,0.3,0.4,0.3c0.1,0,0.2,0,0.3,0.1c0.1,0,0.2,0,0.2,0V42.8z M92.5,38
		c0-0.4-0.1-0.8-0.4-0.9c-0.2-0.2-0.6-0.3-1-0.3h-0.4v2.7h0.3c0.4,0,0.8-0.1,1-0.4C92.4,38.8,92.5,38.5,92.5,38z"/>
	<path class="st8" d="M102.1,38.1h-0.4c-0.1-0.3-0.2-0.6-0.5-0.9s-0.4-0.5-0.6-0.5c-0.1,0-0.2,0-0.4,0c-0.1,0-0.3,0-0.4,0h-0.2v5.1
		c0,0.1,0,0.2,0.1,0.3s0.1,0.2,0.2,0.2c0.1,0,0.2,0.1,0.3,0.1c0.1,0,0.3,0,0.4,0.1v0.4h-3.6v-0.4c0.1,0,0.2,0,0.4,0s0.3,0,0.3-0.1
		c0.1,0,0.2-0.1,0.2-0.2s0.1-0.2,0.1-0.3v-5.1H98c-0.1,0-0.2,0-0.4,0c-0.1,0-0.3,0-0.4,0c-0.2,0-0.4,0.2-0.6,0.5s-0.4,0.6-0.5,0.9
		h-0.4v-1.9h6.3V38.1z"/>
	<path class="st8" d="M111.8,37c0.3,0.3,0.6,0.6,0.8,1.1c0.2,0.4,0.3,0.9,0.3,1.4c0,0.5-0.1,0.9-0.2,1.3c-0.2,0.4-0.4,0.8-0.7,1.1
		c-0.3,0.3-0.7,0.6-1.1,0.7c-0.4,0.2-0.9,0.3-1.5,0.3c-0.5,0-0.9-0.1-1.3-0.2s-0.8-0.4-1.1-0.7c-0.3-0.3-0.6-0.6-0.8-1.1
		c-0.2-0.4-0.3-0.9-0.3-1.4c0-0.5,0.1-1,0.3-1.4c0.2-0.4,0.4-0.8,0.7-1.1c0.3-0.3,0.7-0.5,1.1-0.7s0.9-0.2,1.4-0.2
		c0.5,0,0.9,0.1,1.4,0.2C111.1,36.5,111.5,36.7,111.8,37z M110.6,41.7c0.1-0.3,0.2-0.6,0.3-0.9c0.1-0.4,0.1-0.7,0.1-1.2
		c0-0.4,0-0.7-0.1-1.1c-0.1-0.4-0.1-0.7-0.3-1c-0.1-0.3-0.3-0.5-0.5-0.7c-0.2-0.2-0.5-0.3-0.8-0.3c-0.6,0-1,0.3-1.3,0.8
		c-0.3,0.5-0.4,1.3-0.4,2.2c0,0.4,0,0.8,0.1,1.2s0.2,0.7,0.3,0.9c0.1,0.3,0.3,0.5,0.5,0.6s0.5,0.2,0.8,0.2c0.3,0,0.6-0.1,0.8-0.2
		C110.3,42.1,110.5,41.9,110.6,41.7z"/>
	<path class="st8" d="M119.8,38h-0.4c-0.1-0.3-0.2-0.5-0.5-0.8c-0.2-0.3-0.4-0.4-0.6-0.5c-0.1,0-0.2,0-0.4,0c-0.2,0-0.3,0-0.4,0h-1
		v2.5h0.6c0.2,0,0.3,0,0.5-0.1s0.3-0.1,0.4-0.2c0.1-0.1,0.1-0.2,0.2-0.4s0.1-0.3,0.1-0.5h0.3v2.7h-0.3c0-0.1-0.1-0.3-0.1-0.5
		c-0.1-0.2-0.2-0.3-0.2-0.4c-0.1-0.1-0.2-0.2-0.3-0.2c-0.1,0-0.3-0.1-0.5-0.1h-0.6v2.2c0,0.1,0,0.2,0.1,0.3s0.1,0.1,0.2,0.2
		c0.1,0,0.2,0.1,0.3,0.1c0.1,0,0.2,0,0.4,0.1v0.4H114v-0.4c0.1,0,0.2,0,0.4,0s0.2,0,0.3-0.1c0.1,0,0.2-0.1,0.2-0.2
		c0-0.1,0.1-0.2,0.1-0.3v-4.6c0-0.1,0-0.2-0.1-0.3s-0.1-0.1-0.2-0.2c-0.1,0-0.2-0.1-0.3-0.1c-0.1,0-0.2-0.1-0.3-0.1v-0.4h5.8V38z"/>
	<path class="st8" d="M132.5,42.8H129v-0.4c0.1,0,0.2,0,0.4,0s0.3,0,0.3-0.1c0.1,0,0.2-0.1,0.2-0.2c0-0.1,0.1-0.2,0.1-0.3V37
		l-2.2,5.7h-0.6c0-0.1-0.1-0.3-0.2-0.6c-0.1-0.3-0.2-0.5-0.3-0.7l-1.6-4.5v3.9c0,0.4,0,0.7,0.1,0.9c0,0.2,0.1,0.3,0.2,0.4
		c0.1,0.1,0.2,0.1,0.4,0.2c0.2,0.1,0.3,0.1,0.4,0.1v0.4h-2.8v-0.4c0.1,0,0.2,0,0.4-0.1c0.2,0,0.3-0.1,0.4-0.2
		c0.1-0.1,0.2-0.2,0.2-0.4c0-0.2,0.1-0.5,0.1-0.9v-3.2c0-0.2,0-0.4-0.1-0.5c0-0.1-0.1-0.2-0.2-0.3c-0.1-0.1-0.2-0.2-0.4-0.2
		c-0.1,0-0.3,0-0.4-0.1v-0.4h3l1.6,4.3l1.3-3.5c0-0.1,0.1-0.3,0.1-0.5s0.1-0.3,0.1-0.3h2.9v0.4c-0.1,0-0.2,0-0.3,0
		c-0.1,0-0.2,0-0.3,0.1c-0.1,0-0.2,0.1-0.2,0.2c0,0.1-0.1,0.2-0.1,0.3v4.6c0,0.1,0,0.2,0.1,0.3c0,0.1,0.1,0.1,0.2,0.2
		c0.1,0,0.2,0.1,0.3,0.1s0.2,0,0.3,0.1V42.8z"/>
	<path class="st8" d="M139.6,37c0.3,0.3,0.6,0.6,0.8,1.1c0.2,0.4,0.3,0.9,0.3,1.4c0,0.5-0.1,0.9-0.2,1.3c-0.2,0.4-0.4,0.8-0.7,1.1
		c-0.3,0.3-0.7,0.6-1.1,0.7c-0.4,0.2-0.9,0.3-1.5,0.3c-0.5,0-0.9-0.1-1.3-0.2s-0.8-0.4-1.1-0.7c-0.3-0.3-0.6-0.6-0.8-1.1
		c-0.2-0.4-0.3-0.9-0.3-1.4c0-0.5,0.1-1,0.3-1.4c0.2-0.4,0.4-0.8,0.7-1.1c0.3-0.3,0.7-0.5,1.1-0.7s0.9-0.2,1.4-0.2
		c0.5,0,0.9,0.1,1.4,0.2C138.9,36.5,139.3,36.7,139.6,37z M138.5,41.7c0.1-0.3,0.2-0.6,0.3-0.9c0.1-0.4,0.1-0.7,0.1-1.2
		c0-0.4,0-0.7-0.1-1.1c-0.1-0.4-0.1-0.7-0.3-1c-0.1-0.3-0.3-0.5-0.5-0.7c-0.2-0.2-0.5-0.3-0.8-0.3c-0.6,0-1,0.3-1.3,0.8
		c-0.3,0.5-0.4,1.3-0.4,2.2c0,0.4,0,0.8,0.1,1.2c0.1,0.4,0.2,0.7,0.3,0.9c0.1,0.3,0.3,0.5,0.5,0.6c0.2,0.2,0.5,0.2,0.8,0.2
		c0.3,0,0.6-0.1,0.8-0.2C138.2,42.1,138.3,41.9,138.5,41.7z"/>
	<path class="st8" d="M148.8,36.7c-0.1,0-0.2,0-0.3,0.1c-0.1,0-0.2,0.1-0.3,0.1c-0.1,0.1-0.2,0.2-0.3,0.2c-0.1,0.1-0.1,0.2-0.2,0.4
		c-0.1,0.2-0.2,0.5-0.4,0.9s-0.4,0.9-0.6,1.4c-0.2,0.5-0.4,1-0.6,1.5c-0.2,0.6-0.4,1.1-0.7,1.6h-0.9c-0.4-1-0.9-2.1-1.3-3.2
		c-0.4-1.1-0.8-1.8-0.9-2.3c-0.1-0.2-0.1-0.3-0.2-0.3c-0.1-0.1-0.2-0.2-0.3-0.2c-0.1-0.1-0.2-0.1-0.3-0.1c-0.1,0-0.2,0-0.3-0.1v-0.4
		h3.5v0.3c-0.3,0-0.6,0.1-0.7,0.1c-0.1,0-0.2,0.1-0.2,0.2c0,0,0,0.1,0,0.1s0,0.1,0,0.2c0.1,0.3,0.3,0.7,0.5,1.3
		c0.3,0.6,0.6,1.5,1.1,2.8c0.3-0.8,0.6-1.4,0.8-1.9c0.2-0.5,0.4-1,0.5-1.4c0.1-0.2,0.1-0.4,0.2-0.5c0.1-0.2,0.1-0.3,0.1-0.4
		c0-0.1-0.1-0.2-0.2-0.2c-0.1-0.1-0.4-0.1-0.8-0.1v-0.4h2.6V36.7z"/>
	<path class="st8" d="M153,42.8h-3.6v-0.4c0.1,0,0.2,0,0.4,0c0.2,0,0.3,0,0.3-0.1c0.1,0,0.2-0.1,0.2-0.2c0-0.1,0.1-0.2,0.1-0.3v-4.6
		c0-0.1,0-0.2-0.1-0.3c0-0.1-0.1-0.1-0.2-0.2c-0.1,0-0.2-0.1-0.3-0.1c-0.1,0-0.3-0.1-0.4-0.1v-0.4h3.6v0.4c-0.1,0-0.2,0-0.3,0
		c-0.1,0-0.3,0-0.3,0.1c-0.1,0-0.2,0.1-0.2,0.2s-0.1,0.2-0.1,0.3v4.6c0,0.1,0,0.2,0.1,0.3s0.1,0.1,0.2,0.2c0.1,0,0.2,0.1,0.3,0.1
		c0.1,0,0.3,0,0.4,0V42.8z"/>
	<path class="st8" d="M161.5,36.6c-0.1,0-0.2,0-0.4,0c-0.2,0-0.3,0.1-0.4,0.2c-0.1,0.1-0.2,0.2-0.2,0.4c0,0.2-0.1,0.5-0.1,0.9v4.6
		h-0.8l-4-5v3c0,0.4,0,0.7,0.1,0.9c0,0.2,0.1,0.3,0.2,0.4c0.1,0.1,0.2,0.1,0.4,0.2s0.3,0.1,0.4,0.1v0.4h-2.8v-0.4
		c0.1,0,0.3,0,0.4-0.1c0.2,0,0.3-0.1,0.4-0.2c0.1-0.1,0.2-0.2,0.2-0.4c0-0.2,0.1-0.5,0.1-0.9v-3.1c0-0.2,0-0.3-0.1-0.4
		s-0.1-0.3-0.2-0.3c-0.1-0.1-0.2-0.2-0.4-0.2s-0.3-0.1-0.5-0.1v-0.4h2.4l3.5,4.4v-2.5c0-0.4,0-0.7-0.1-0.9s-0.1-0.3-0.2-0.4
		c-0.1-0.1-0.2-0.1-0.4-0.2c-0.2,0-0.3-0.1-0.4-0.1v-0.4h2.8V36.6z"/>
	<path class="st8" d="M169.6,40.1c-0.1,0-0.2,0-0.3,0c-0.1,0-0.2,0-0.3,0.1c-0.1,0-0.2,0.1-0.2,0.2c0,0.1-0.1,0.2-0.1,0.3v0.8
		c0,0.2,0,0.3,0,0.4c0,0.1,0,0.2,0,0.3c-0.3,0.2-0.8,0.4-1.4,0.5c-0.6,0.2-1.1,0.2-1.6,0.2c-0.5,0-0.9-0.1-1.3-0.2
		c-0.4-0.1-0.8-0.4-1.1-0.6c-0.3-0.3-0.6-0.6-0.7-1.1c-0.2-0.4-0.3-0.9-0.3-1.4c0-0.5,0.1-1,0.3-1.4s0.4-0.8,0.7-1.1
		c0.3-0.3,0.7-0.5,1.1-0.7c0.4-0.2,0.9-0.3,1.5-0.3c0.4,0,0.7,0,1,0.1c0.3,0.1,0.6,0.2,0.8,0.3l0.3-0.3h0.4l0,2.4h-0.4
		c-0.2-0.7-0.5-1.2-0.8-1.6c-0.3-0.3-0.7-0.5-1.2-0.5c-0.6,0-1,0.3-1.4,0.8s-0.5,1.2-0.5,2.1c0,1,0.2,1.7,0.5,2.2
		c0.3,0.5,0.8,0.8,1.3,0.8c0.3,0,0.5,0,0.7-0.1c0.2-0.1,0.4-0.2,0.5-0.3v-1.3c0-0.1,0-0.2-0.1-0.3c0-0.1-0.1-0.1-0.2-0.2
		c-0.1,0-0.2-0.1-0.3-0.1c-0.1,0-0.3,0-0.3-0.1v-0.4h3.4V40.1z"/>
</g>
<circle class="st9" cx="215.9" cy="8.6" r="4.2"/>
<g>
	<linearGradient id="SVGID_8_" gradientUnits="userSpaceOnUse" x1="212.4355" y1="8.7639" x2="215.082" y2="8.7639">
		<stop  offset="0" style="stop-color:#AA0000"/>
		<stop  offset="0.1883" style="stop-color:#930000"/>
		<stop  offset="0.3707" style="stop-color:#840000"/>
		<stop  offset="0.521" style="stop-color:#7F0000"/>
		<stop  offset="0.6694" style="stop-color:#850000"/>
		<stop  offset="0.8622" style="stop-color:#950000"/>
		<stop  offset="1" style="stop-color:#A50000"/>
	</linearGradient>
	<path class="st10" d="M213.4,10.4V7.7h-1V7.1h2.6v0.6h-1v2.8H213.4z"/>
	<linearGradient id="SVGID_9_" gradientUnits="userSpaceOnUse" x1="215.5059" y1="8.7639" x2="218.7217" y2="8.7639">
		<stop  offset="0" style="stop-color:#AA0000"/>
		<stop  offset="0.1883" style="stop-color:#930000"/>
		<stop  offset="0.3707" style="stop-color:#840000"/>
		<stop  offset="0.521" style="stop-color:#7F0000"/>
		<stop  offset="0.6694" style="stop-color:#850000"/>
		<stop  offset="0.8622" style="stop-color:#950000"/>
		<stop  offset="1" style="stop-color:#A50000"/>
	</linearGradient>
	<path class="st11" d="M215.5,10.4V7.1h1l0.6,2.3l0.6-2.3h1v3.3h-0.6V7.8l-0.7,2.6h-0.6l-0.7-2.6v2.6H215.5z"/>
</g>
</svg>
